<svg width="current" height="current" viewBox="0 0 32 32" fill="none" xmlns="http://www.w3.org/2000/svg">
<g id="Group 19">
<g id="Group 18">
<path id="Vector" d="M5.12319 23.5833C5.12319 23.8194 4.87386 24.0119 4.56571 24.0119H4.3569C4.04913 24.0119 3.7998 23.8206 3.7998 23.5833V16.2352C3.7998 16.0014 4.04913 15.8066 4.3569 15.8066H4.56571C4.87386 15.8066 5.12319 15.9979 5.12319 16.2352V23.5833Z" fill="#BCBCBC"/>
<path id="Vector_2" d="M28.2052 23.5833C28.2052 23.8194 27.9559 24.0119 27.6477 24.0119H27.4389C27.1312 24.0119 26.8818 23.8206 26.8818 23.5833V16.2352C26.8818 16.0014 27.1312 15.8066 27.4389 15.8066H27.6477C27.9559 15.8066 28.2052 15.9979 28.2052 16.2352V23.5833Z" fill="#BCBCBC"/>
<path id="Vector_3" d="M8.33153 4.15571C8.39381 3.77413 8.13497 3.4143 7.75338 3.35202C7.37179 3.28974 7.01197 3.54858 6.94969 3.93017C6.8874 4.31176 7.14625 4.67158 7.52784 4.73387C7.90942 4.79615 8.26925 4.5373 8.33153 4.15571Z" fill="#BCBCBC"/>
<path id="Vector_4" d="M8.04392 9.59636H7.23633L7.43228 4.04297H7.81212L8.04392 9.59636Z" fill="#BCBCBC"/>
<path id="Vector_5" d="M9.08188 12.6932C9.08188 12.9293 8.86683 13.1217 8.60153 13.1217H6.67898C6.41368 13.1217 6.19824 12.9305 6.19824 12.6932V8.93342C6.19824 8.69733 6.41368 8.50488 6.67898 8.50488H8.60153C8.86683 8.50488 9.08188 8.69616 9.08188 8.93342V12.6932Z" fill="#BCBCBC"/>
<path id="Vector_6" d="M25.0467 4.2057C25.1362 3.82958 24.9039 3.45208 24.5277 3.36255C24.1516 3.27301 23.7741 3.50534 23.6846 3.88146C23.595 4.25759 23.8274 4.63508 24.2035 4.72462C24.5796 4.81416 24.9571 4.58183 25.0467 4.2057Z" fill="#BCBCBC"/>
<path id="Vector_7" d="M24.7685 9.59636H23.9609L24.1569 4.04297H24.5367L24.7685 9.59636Z" fill="#BCBCBC"/>
<path id="Vector_8" d="M25.8065 12.6932C25.8065 12.9293 25.5914 13.1217 25.3261 13.1217H23.4036C23.1383 13.1217 22.9229 12.9305 22.9229 12.6932V8.93342C22.9229 8.69733 23.1383 8.50488 23.4036 8.50488H25.3254C25.5907 8.50488 25.8057 8.69616 25.8057 8.93342L25.8065 12.6932Z" fill="#BCBCBC"/>
<path id="Vector_9" d="M27.4593 15.7336C27.2583 11.721 22.2063 8.50586 16.0027 8.50586C9.7991 8.50586 4.7471 11.7199 4.54607 15.7336C4.54157 15.7737 4.53923 15.8141 4.53906 15.8544V27.3605C4.53906 28.1549 5.37158 28.7988 6.39889 28.7988H25.6049C26.6322 28.7988 27.4648 28.1549 27.4648 27.3605V15.8544C27.4651 15.8141 27.4633 15.7738 27.4593 15.7336Z" fill="#D1D1D1"/>
<path id="Vector_10" d="M25.6059 27.8342H6.39987C5.37256 27.8342 4.54004 27.4221 4.54004 26.9133V27.8786C4.54004 28.3874 5.37256 28.7996 6.39987 28.7996H25.6059C26.6332 28.7996 27.4657 28.3874 27.4657 27.8786V26.9121C27.4673 27.4209 26.6332 27.8342 25.6059 27.8342Z" fill="#BCBCBC"/>
<path id="Vector_11" d="M24.585 24.4199V18.2311C24.585 18.1973 24.585 18.1637 24.5799 18.1306C24.4292 14.7838 20.6472 12.1055 16.0026 12.1055C11.3581 12.1055 7.57575 14.7838 7.42499 18.1306C7.42187 18.1637 7.41992 18.1973 7.41992 18.2311V24.4199H24.585Z" fill="#BCBCBC"/>
<path id="Vector_12" d="M24.585 24.4204V18.6158C24.5849 18.5844 24.5832 18.5531 24.5799 18.5219C24.4292 15.3842 20.6452 12.873 16.0023 12.873C11.3593 12.873 7.57575 15.3854 7.42499 18.5242C7.42172 18.5554 7.42003 18.5867 7.41992 18.6181V24.4228L24.585 24.4204Z" fill="#3FBA73"/>
<path id="Vector_13" d="M24.5803 18.5238C24.4295 15.3862 20.6456 12.875 16.0026 12.875C11.3597 12.875 7.57575 15.385 7.42499 18.5238C7.42172 18.555 7.42003 18.5864 7.41992 18.6177V19.8994C7.41992 19.8679 7.42187 19.8363 7.42499 19.8051C7.57575 16.6675 11.3597 14.1563 16.0026 14.1563C20.6456 14.1563 24.4295 16.6683 24.5803 19.8051C24.5834 19.8363 24.5854 19.8679 24.5854 19.8994V18.6177C24.5853 18.5864 24.5836 18.555 24.5803 18.5238Z" fill="black" fill-opacity="0.3"/>
<path id="Vector_14" d="M11.8256 17.8191C11.8256 17.9828 11.7771 18.1428 11.6861 18.279C11.5951 18.4151 11.4658 18.5212 11.3146 18.5839C11.1633 18.6465 10.9969 18.6629 10.8363 18.631C10.6757 18.5991 10.5282 18.5202 10.4124 18.4044C10.2966 18.2887 10.2178 18.1411 10.1858 17.9806C10.1539 17.82 10.1703 17.6535 10.2329 17.5023C10.2956 17.351 10.4017 17.2217 10.5378 17.1307C10.674 17.0398 10.834 16.9912 10.9978 16.9912C11.2173 16.9912 11.4279 17.0784 11.5831 17.2337C11.7384 17.3889 11.8256 17.5995 11.8256 17.8191Z" fill="white"/>
<path id="Vector_15" d="M22.3451 17.8191C22.3451 17.9828 22.2966 18.1428 22.2056 18.279C22.1147 18.4151 21.9854 18.5212 21.8341 18.5839C21.6828 18.6465 21.5164 18.6629 21.3558 18.631C21.1952 18.5991 21.0477 18.5202 20.9319 18.4044C20.8161 18.2887 20.7373 18.1411 20.7054 17.9806C20.6734 17.82 20.6898 17.6535 20.7525 17.5023C20.8151 17.351 20.9212 17.2217 21.0574 17.1307C21.1935 17.0398 21.3536 16.9912 21.5173 16.9912C21.626 16.9912 21.7337 17.0125 21.8342 17.0541C21.9346 17.0957 22.0259 17.1567 22.1028 17.2336C22.1797 17.3104 22.2407 17.4017 22.2822 17.5022C22.3238 17.6027 22.3452 17.7103 22.3451 17.8191Z" fill="white"/>
<path id="Vector_16" d="M18.7866 20.6993C18.7609 20.6985 18.7353 20.7028 18.7112 20.7119C18.6872 20.721 18.6652 20.7348 18.6465 20.7525C18.6278 20.7702 18.6128 20.7914 18.6023 20.8149C18.5919 20.8384 18.5862 20.8637 18.5856 20.8894C18.5856 20.9011 18.5501 21.7788 17.9923 22.2393C17.459 22.6791 16.492 22.8264 16.0226 22.8237C15.5843 22.8428 14.5866 22.6776 14.0533 22.2393C13.4954 21.7788 13.4604 20.9011 13.46 20.8894C13.4592 20.8637 13.4534 20.8384 13.4429 20.8149C13.4324 20.7915 13.4173 20.7703 13.3986 20.7527C13.3799 20.735 13.3579 20.7212 13.3339 20.7121C13.3099 20.7029 13.2843 20.6986 13.2586 20.6993C13.2328 20.7001 13.2075 20.7059 13.1841 20.7164C13.1606 20.7269 13.1394 20.7419 13.1218 20.7607C13.1041 20.7794 13.0903 20.8014 13.0812 20.8254C13.072 20.8494 13.0677 20.875 13.0684 20.9007C13.0684 20.944 13.1074 21.9654 13.8043 22.5416C14.5169 23.1295 15.4359 23.2187 15.9295 23.2187C16.5189 23.2187 17.5287 23.1295 18.2412 22.5416C18.9393 21.9654 18.976 20.9444 18.9771 20.9007C18.978 20.875 18.9738 20.8493 18.9646 20.8251C18.9555 20.801 18.9417 20.7789 18.924 20.7602C18.9062 20.7415 18.885 20.7264 18.8614 20.716C18.8378 20.7055 18.8124 20.6999 18.7866 20.6993Z" fill="white"/>
</g>
</g>
</svg>
