<svg width="current" height="current" viewBox="0 0 24 24" fill="none" xmlns="http://www.w3.org/2000/svg">
<g id="Person">
<path id="Shape" d="M17.7545 13.9999C18.9966 13.9999 20.0034 15.0068 20.0034 16.2488V17.1673C20.0034 17.7406 19.8242 18.2997 19.4908 18.7662C17.9449 20.9294 15.4206 22.0011 12.0004 22.0011C8.5794 22.0011 6.05643 20.9289 4.51427 18.7646C4.18231 18.2987 4.00391 17.7409 4.00391 17.1688V16.2488C4.00391 15.0068 5.01076 13.9999 6.25278 13.9999H17.7545ZM12.0004 2.00464C14.7618 2.00464 17.0004 4.24321 17.0004 7.00464C17.0004 9.76606 14.7618 12.0046 12.0004 12.0046C9.23894 12.0046 7.00036 9.76606 7.00036 7.00464C7.00036 4.24321 9.23894 2.00464 12.0004 2.00464Z" fill="current"/>
</g>
</svg>
